control3min_grf.mot
version=1
nRows=27
nColumns 19
inDegrees=yes
endheader
time	1_ground_force_vx	1_ground_force_vy	1_ground_force_vz	1_ground_force_px	1_ground_force_py	1_ground_force_pz	1_ground_torque_x	1_ground_torque_y	1_ground_torque_z	2_ground_force_vx	2_ground_force_vy	2_ground_force_vz	2_ground_force_px	2_ground_force_py	2_ground_force_pz	2_ground_torque_x	2_ground_torque_y	2_ground_torque_z
            1.253500	           11.662930	          268.278877	           -8.508700	           -0.201901	            0.006308	           -0.423921	            0.018254	            0.419897	           -0.013317	          -36.500278	          208.338717	           -2.572901	           -0.160029	            0.005872	           -0.688083	            0.074146	           -0.423216	            0.005227
            1.254000	           14.362224	          273.154467	          -10.328779	           -0.201386	            0.006311	           -0.424382	            0.031415	            0.597472	           -0.022592	          -33.473506	          213.504694	           -2.227302	           -0.161137	            0.005871	           -0.689140	            0.034815	           -0.222061	            0.002317
            1.254500	           16.969280	          277.310096	          -12.426859	           -0.200928	            0.006313	           -0.424892	            0.029653	            0.484583	           -0.021715	          -31.428249	          218.111988	           -1.132406	           -0.162524	            0.005870	           -0.690154	           -0.049126	            0.340935	           -0.001770
            1.255000	           18.846086	          281.820474	          -13.191750	           -0.201916	            0.006312	           -0.424664	           -0.000456	           -0.006817	            0.000319	          -28.581857	          221.432808	            0.051408	           -0.163144	            0.005867	           -0.690021	           -0.089982	            0.697117	            0.000162
            1.255500	           20.726121	          287.947117	          -12.528151	           -0.202180	            0.006308	           -0.423867	           -0.030260	           -0.420408	            0.018291	          -25.133498	          226.779594	            1.758400	           -0.164127	            0.005865	           -0.690384	           -0.062207	            0.561294	            0.004352
            1.256000	           23.158751	          292.988341	          -10.953437	           -0.201913	            0.006311	           -0.424596	           -0.035343	           -0.447137	            0.016716	          -21.114671	          229.737502	            2.611906	           -0.164749	            0.005862	           -0.690218	           -0.013587	            0.147832	            0.001681
            1.256500	           26.278972	          298.930799	           -9.330709	           -0.201905	            0.006313	           -0.424949	            0.002653	            0.030177	           -0.000942	          -17.143480	          232.880386	            3.184519	           -0.166125	            0.005856	           -0.689992	            0.019987	           -0.271510	           -0.003713
            1.257000	           29.717755	          302.714910	           -8.818595	           -0.202196	            0.006314	           -0.425253	            0.053049	            0.540371	           -0.015742	          -14.158982	          236.757848	            3.337826	           -0.167037	            0.005856	           -0.690802	            0.027529	           -0.460328	           -0.006490
            1.257500	           32.877457	          309.209017	           -9.715738	           -0.202318	            0.006310	           -0.424192	            0.085455	            0.803699	           -0.025253	          -11.784300	          240.818058	            3.257409	           -0.167206	            0.005857	           -0.691323	            0.010230	           -0.209064	           -0.002828
            1.258000	           35.896904	          315.707817	          -11.713080	           -0.202258	            0.006312	           -0.424709	            0.075056	            0.660106	           -0.024491	          -10.201729	          243.767672	            3.971166	           -0.167627	            0.005855	           -0.691119	           -0.010598	            0.253232	            0.004125
            1.258500	           36.993224	          319.679379	          -12.982771	           -0.202397	            0.006315	           -0.425508	            0.009273	            0.080134	           -0.003254	           -8.667090	          247.083420	            5.249395	           -0.168067	            0.005853	           -0.691093	           -0.021203	            0.604450	            0.012842
            1.259000	           38.274603	          325.630330	          -13.419009	           -0.202780	            0.006313	           -0.425101	           -0.026395	           -0.224561	            0.009254	           -5.726085	          250.218399	            6.995649	           -0.168804	            0.005851	           -0.691340	           -0.012245	            0.535098	            0.014960
            1.259500	           38.871363	          332.477002	          -12.565709	           -0.202832	            0.006312	           -0.424733	           -0.033575	           -0.287177	            0.010854	           -2.033261	          252.801790	            9.255823	           -0.169056	            0.005851	           -0.691491	           -0.001806	            0.224540	            0.008221
            1.260000	           40.294137	          339.682792	          -11.346063	           -0.202213	            0.006310	           -0.424410	            0.004056	            0.034193	           -0.001142	            1.746870	          257.046255	           10.583308	           -0.169754	            0.005850	           -0.691936	           -0.000972	           -0.143049	           -0.005890
            1.260500	           42.176324	          345.265130	           -9.859377	           -0.202706	            0.006311	           -0.424547	            0.073762	            0.603836	           -0.017243	            5.243538	          261.845110	           11.068178	           -0.171307	            0.005847	           -0.692539	           -0.005678	           -0.283535	           -0.011985
            1.261000	           44.146110	          351.395133	           -9.975557	           -0.202931	            0.006312	           -0.424732	            0.102383	            0.814954	           -0.023135	            7.903451	          264.800288	           11.312196	           -0.171236	            0.005845	           -0.692033	           -0.001624	           -0.054403	           -0.002324
            1.261500	           45.792394	          358.070167	          -11.097451	           -0.202419	            0.006314	           -0.425215	            0.086712	            0.678037	           -0.021014	            9.946984	          269.779043	           11.516772	           -0.171930	            0.005842	           -0.691799	            0.013076	            0.354641	            0.015139
            1.262000	           45.923853	          366.370278	          -12.896472	           -0.202582	            0.006313	           -0.425069	            0.028090	            0.224096	           -0.007888	           11.901154	          273.649771	           12.515224	           -0.172206	            0.005842	           -0.692241	            0.026531	            0.610042	            0.027900
            1.262500	           44.727825	          373.945925	          -13.961592	           -0.202726	            0.006311	           -0.424579	           -0.014909	           -0.124650	            0.004654	           14.227712	          278.256406	           14.079281	           -0.173335	            0.005840	           -0.692620	            0.027728	            0.542284	            0.027439
            1.263000	           43.351410	          381.336189	          -13.834775	           -0.202789	            0.006311	           -0.424445	           -0.018827	           -0.165609	            0.006008	           17.303349	          283.048717	           15.972174	           -0.173423	            0.005840	           -0.692730	            0.015599	            0.255163	            0.014399
            1.263500	           41.655283	          389.084699	          -13.201201	           -0.202638	            0.006312	           -0.424780	            0.015105	            0.141089	           -0.004787	           20.657199	          288.580508	           17.351366	           -0.173841	            0.005842	           -0.693673	           -0.002975	           -0.041563	           -0.002499
            1.264000	           40.417817	          396.832965	          -12.477053	           -0.202495	            0.006311	           -0.424583	            0.044027	            0.432268	           -0.013591	           24.198929	          293.930341	           18.307469	           -0.174502	            0.005841	           -0.694068	           -0.009722	           -0.118084	           -0.007355
            1.264500	           39.591409	          405.484968	          -12.300335	           -0.203048	            0.006310	           -0.424308	            0.053034	            0.543162	           -0.016477	           26.946496	          298.543687	           18.416576	           -0.174737	            0.005838	           -0.693645	            0.007311	            0.080999	            0.004997
            1.265000	           39.083193	          413.961456	          -13.225729	           -0.202826	            0.006311	           -0.424520	            0.037437	            0.396524	           -0.012669	           28.475929	          303.152970	           18.432345	           -0.175107	            0.005836	           -0.693320	            0.035494	            0.377866	            0.022975
            1.265500	           37.977362	          424.062609	          -14.692957	           -0.202804	            0.006308	           -0.423942	            0.007692	            0.085890	           -0.002976	           30.189579	          308.682522	           18.779816	           -0.175740	            0.005835	           -0.693752	            0.056828	            0.581058	            0.035351
            1.266000	           35.909196	          432.180684	          -16.166299	           -0.202981	            0.006309	           -0.424065	            0.001089	            0.013112	           -0.000490	           31.714894	          314.576499	           20.020315	           -0.176081	            0.005836	           -0.694404	            0.056663	            0.562035	            0.035769
            1.266500	           32.374858	          440.837670	          -17.266834	           -0.203070	            0.006308	           -0.423845	           -0.000994	           -0.013540	            0.000530	           33.903538	          318.446171	           21.534876	           -0.176359	            0.005833	           -0.693704	            0.029929	            0.281114	            0.019010
